<?xml version="1.0" encoding="UTF-8"?>
<svg width="589px" height="589px" viewBox="0 0 589 589" version="1.1" xmlns="http://www.w3.org/2000/svg" xmlns:xlink="http://www.w3.org/1999/xlink">
    <title>outro-04</title>
    <g id="outro-04" stroke="none" stroke-width="1" fill="none" fill-rule="evenodd">
        <g id="np_maze_130899_FFFFFF" transform="translate(39.5049, 39.5)" fill="#FFFFFF" fill-rule="nonzero">
            <path d="M255.000403,0 C114.395865,0 0,114.458305 0,255.148738 C0,389.799687 104.791744,500.335651 237.048374,509.601561 C239.040545,509.748355 241.032769,509.916118 243.025047,510 L243.025047,444.048843 C241.032876,443.923018 239.019715,443.776224 237.048374,443.587491 C149.494657,435.304004 79.227283,367.065897 67.5885278,280.478497 L61.5490446,280.478497 C73.2506104,370.356744 146.209178,441.236119 237.048374,449.584027 L237.048374,503.601165 C108.098697,494.352971 5.97506207,386.50498 5.97506207,255.144878 C5.97506207,118.625715 116.280184,7.46164462 252.375241,6.0390108 L252.375241,59.9112011 C154.632244,61.2113811 74.0843275,134.773951 61.6080973,229.521364 L67.6475805,229.521364 C80.187695,137.232692 159.372567,65.8486842 254.995034,65.8486842 C350.617501,65.8486842 429.801837,137.232692 442.342488,229.521364 L448.381971,229.521364 C435.925604,135.010162 355.755088,61.6129933 258.350303,59.9541486 L258.371272,6.08195823 C394.133486,7.90636533 504.01987,118.904873 504.01987,255.166352 C504.01987,386.50498 401.896235,494.378203 272.946558,503.601165 L272.946558,449.584027 C363.791122,441.258666 436.74808,370.378218 448.445888,280.478497 L442.406404,280.478497 C430.767649,367.065897 360.473433,435.304004 272.946558,443.587491 L272.946558,389.355616 C339.128557,380.548171 390.338006,323.737302 390.338006,255.144878 C390.338006,188.984352 342.672257,133.829107 279.909411,122.088352 L279.909411,128.190646 C339.337926,139.850338 384.341471,192.295063 384.341471,255.143267 C384.341471,320.42337 335.773826,374.547877 272.925084,383.314522 L272.946053,328.540436 C305.953305,320.445918 330.533197,290.625902 330.533197,255.143267 C330.533197,213.475128 296.644985,179.566516 254.999393,179.566516 C213.353801,179.566516 179.46559,213.475665 179.46559,255.143267 C179.46559,290.625365 204.042797,320.466318 237.052733,328.540436 L237.052733,383.314522 C174.183055,374.548951 125.636347,320.42337 125.636347,255.143267 C125.636347,192.316536 170.638818,139.845506 230.068407,128.190646 L230.068407,122.088352 C167.306097,133.831792 119.639811,188.984352 119.639811,255.144878 C119.639811,323.737302 170.870734,380.524549 237.03126,389.355616 C239.002493,389.62823 240.994664,389.837937 243.007932,390.02667 L243.007932,384.02906 L243.028901,329.759606 L243.028901,323.678249 C240.99475,323.321748 239.002579,322.90235 237.052229,322.378069 C207.379308,314.430109 185.464842,287.315782 185.464842,255.149226 C185.464842,216.773545 216.668839,185.569011 255.00211,185.569011 C293.356855,185.569011 324.539377,216.793945 324.539377,255.149226 C324.539377,287.31793 302.625448,314.432794 272.951991,322.378069 C271.001748,322.902334 268.988587,323.342722 266.975318,323.678249 L266.975318,414.018181 C263.011914,414.311765 259.048295,414.521472 255.001036,414.521472 C167.178897,414.521472 95.7089951,343.035464 95.7089951,255.143536 C95.7089951,168.137398 165.750895,97.2365495 252.381242,95.830021 L252.381242,149.702211 C195.449047,151.107237 149.56508,197.850582 149.56508,255.143536 C149.56508,299.1813 176.700881,336.990612 215.118973,352.763058 L215.118973,346.24149 C180.09856,330.828192 155.561616,295.807779 155.561616,255.144609 C155.561616,200.263154 200.186686,155.640768 255.02251,155.640768 C309.858333,155.640768 354.483404,200.286775 354.483404,255.144609 C354.483404,295.827105 329.94807,330.850203 294.926047,346.24149 L294.926047,352.763058 C333.343602,336.993297 360.479939,299.183447 360.479939,255.143536 C360.479939,198.103972 314.994847,151.506004 258.393884,149.723685 L258.372914,95.8514947 C344.643577,97.6549649 414.288213,168.389715 414.288213,255.143536 C414.288213,329.233232 363.477101,391.662699 294.905077,409.421464 L294.905077,415.586568 C366.122664,397.845519 419.194958,333.803913 420.225696,257.384318 L474.054939,257.384318 C472.985441,363.62017 396.003342,451.946941 294.905077,470.634444 L294.905077,476.736738 C400.051138,457.84255 480.094422,365.696142 480.094422,255.144073 C480.094422,139.389995 392.35281,43.826581 279.932527,31.3879298 L279.932527,37.3855392 C387.827224,49.6744113 472.149147,140.641913 474.011992,251.408719 L420.161275,251.408719 C418.169105,161.94921 344.879788,89.7921483 254.996172,89.7921483 C165.112557,89.7921483 91.8227568,161.94921 89.8310694,251.408719 L35.9803528,251.408719 C37.846741,140.641913 122.170489,49.6738744 230.059817,37.3855392 L230.059817,31.3669929 C117.639534,43.8024231 29.8979222,139.385163 29.8979222,255.144609 C29.8979222,365.702047 109.941206,457.845772 215.087267,476.737275 L215.087267,470.655918 C113.989002,451.950162 37.0271966,363.641644 35.9374054,257.384318 L89.7666483,257.384318 C91.0039102,347.536355 164.607924,420.514786 254.990804,420.514786 C259.017126,420.514786 263.001574,420.326054 266.965086,420.03247 L266.965086,510 C268.957256,509.912731 270.949481,509.744967 272.941759,509.598173 C405.203757,500.349979 509.990133,389.7963 509.990133,255.14535 C509.990133,114.454918 395.594268,0 254.98973,0 L255.000403,0 Z" id="Path"></path>
        </g>
    </g>
</svg>