<?xml version="1.0" encoding="UTF-8"?>
<svg width="100pt" height="100pt" version="1.1" viewBox="0 0 100 100" xmlns="http://www.w3.org/2000/svg">
 <g>
  <path d="m90.625 46.875c-0.91797 0-1.8242-0.40234-2.4414-1.1719l-10.059-12.578-10.059 12.574c-0.55469 0.69531-1.3789 1.1211-2.2656 1.168-0.87891 0.058593-1.75-0.28125-2.3828-0.91016l-13.418-13.414-13.414 13.414c-0.62891 0.62891-1.4922 0.97656-2.3828 0.91016-0.88672-0.046876-1.7109-0.47656-2.2656-1.168l-10.062-12.574-10.059 12.574c-1.0742 1.3477-3.0469 1.5664-4.3906 0.48828-1.3477-1.0781-1.5664-3.043-0.48828-4.3906l12.5-15.625c1.1836-1.4844 3.6953-1.4844 4.8789 0l10.32 12.898 13.156-13.156c1.2188-1.2188 3.1992-1.2188 4.418 0l13.156 13.156 10.32-12.898c1.1836-1.4844 3.6953-1.4844 4.8789 0l12.5 15.625c1.0781 1.3477 0.85938 3.3125-0.48828 4.3906-0.57812 0.46484-1.2656 0.6875-1.9531 0.6875z"/>
  <path d="m90.625 75c-0.91797 0-1.8242-0.40234-2.4414-1.1719l-10.059-12.578-10.059 12.574c-0.55469 0.69531-1.3789 1.1211-2.2656 1.168-0.87891 0.042968-1.75-0.28125-2.3828-0.91016l-13.418-13.414-13.414 13.414c-0.62891 0.62891-1.4922 0.96094-2.3828 0.91016-0.88672-0.046876-1.7109-0.47656-2.2656-1.168l-10.062-12.574-10.059 12.574c-1.0742 1.3516-3.0469 1.5625-4.3906 0.48828-1.3477-1.0781-1.5664-3.043-0.48828-4.3906l12.5-15.625c1.1836-1.4844 3.6953-1.4844 4.8789 0l10.32 12.898 13.156-13.156c1.2188-1.2188 3.1992-1.2188 4.418 0l13.156 13.156 10.32-12.898c1.1836-1.4844 3.6953-1.4844 4.8789 0l12.5 15.625c1.0781 1.3477 0.85938 3.3125-0.48828 4.3906-0.57812 0.46484-1.2656 0.6875-1.9531 0.6875z"/>
 </g>
</svg>
