<?xml version="1.0" encoding="UTF-8"?>
<svg width="100pt" height="100pt" version="1.1" viewBox="0 0 100 100" xmlns="http://www.w3.org/2000/svg">
 <g>
  <path d="m70.312 53.125c-1.7266 0-3.125-1.3984-3.125-3.125s1.3984-3.125 3.125-3.125c9.4766 0 17.188-7.7109 17.188-17.188s-7.7109-17.188-17.188-17.188-17.188 7.7109-17.188 17.188c0 1.7266-1.3984 3.125-3.125 3.125s-3.125-1.3984-3.125-3.125c0-9.4766-7.7109-17.188-17.188-17.188s-17.188 7.7109-17.188 17.188 7.7109 17.188 17.188 17.188c1.7266 0 3.125 1.3984 3.125 3.125s-1.3984 3.125-3.125 3.125c-12.926 0-23.438-10.512-23.438-23.438s10.512-23.438 23.438-23.438c8.6719 0 16.258 4.7344 20.312 11.754 4.0547-7.0195 11.641-11.754 20.312-11.754 12.926 0 23.438 10.512 23.438 23.438s-10.512 23.438-23.438 23.438z"/>
  <path d="m50 93.75c-1.7266 0-3.125-1.3984-3.125-3.125v-62.5c0-1.7266 1.3984-3.125 3.125-3.125s3.125 1.3984 3.125 3.125v62.5c0 1.7266-1.3984 3.125-3.125 3.125z"/>
 </g>
</svg>
