<?xml version="1.0" encoding="UTF-8"?>
<svg width="100pt" height="100pt" version="1.1" viewBox="0 0 100 100" xmlns="http://www.w3.org/2000/svg">
 <g>
  <path d="m71.875 93.75c-12.062 0-21.875-9.8125-21.875-21.875s9.8125-21.875 21.875-21.875 21.875 9.8125 21.875 21.875-9.8125 21.875-21.875 21.875zm0-37.5c-8.6133 0-15.625 7.0117-15.625 15.625s7.0117 15.625 15.625 15.625 15.625-7.0117 15.625-15.625-7.0117-15.625-15.625-15.625z"/>
  <path d="m71.875 93.75h-7.4062c-22.012 0-42.949-9.5-57.445-26.066-1.1367-1.2969-1.0039-3.2734 0.29687-4.4102 1.293-1.1367 3.2695-1.0117 4.4102 0.29687 13.305 15.207 32.527 23.93 52.738 23.93h7.4062c1.7266 0 3.125 1.3984 3.125 3.125s-1.3984 3.125-3.125 3.125z"/>
  <path d="m28.125 50c-12.062 0-21.875-9.8125-21.875-21.875s9.8125-21.875 21.875-21.875 21.875 9.8125 21.875 21.875-9.8125 21.875-21.875 21.875zm0-37.5c-8.6133 0-15.625 7.0117-15.625 15.625s7.0117 15.625 15.625 15.625 15.625-7.0117 15.625-15.625-7.0117-15.625-15.625-15.625z"/>
  <path d="m90.625 37.5c-0.87109 0-1.7344-0.35938-2.3516-1.0664-13.309-15.211-32.531-23.934-52.742-23.934h-7.4062c-1.7266 0-3.125-1.3984-3.125-3.125s1.3984-3.125 3.125-3.125h7.4062c22.012 0 42.949 9.5 57.445 26.066 1.1367 1.2969 1.0039 3.2734-0.29687 4.4102-0.58984 0.51953-1.3203 0.77344-2.0547 0.77344z"/>
 </g>
</svg>
