<?xml version="1.0" encoding="UTF-8"?>
<svg width="100pt" height="100pt" version="1.1" viewBox="0 0 100 100" xmlns="http://www.w3.org/2000/svg">
 <g>
  <path d="m28.125 75c-1.7266 0-3.125-1.3984-3.125-3.125v-17.234c0-16.266-6.332-31.555-17.836-43.055-1.2188-1.2188-1.2188-3.1992 0-4.418 1.2188-1.2227 3.1992-1.2188 4.418 0 12.684 12.676 19.668 29.539 19.668 47.473v17.234c0 1.7266-1.3984 3.125-3.125 3.125z"/>
  <path d="m51.996 93.75h-1.9961c-1.7266 0-3.125-1.3984-3.125-3.125s1.3984-3.125 3.125-3.125h1.9961c1.4297 0 2.7188-0.79688 3.3594-2.0742l3.9609-7.918c-2.0117-4.3203-3.0664-9.043-3.0664-13.836v-45.582c0-3.082-2.5078-5.5898-5.5898-5.5898-1.625 0-3.1992 0.73438-4.3203 2.0195-9.7305 11.109-15.09 25.359-15.09 40.121v17.234c0 1.7266-1.3984 3.125-3.125 3.125s-3.125-1.3984-3.125-3.125v-17.234c0-16.281 5.9062-31.992 16.637-44.238 2.3086-2.6367 5.5977-4.1523 9.0234-4.1523 6.5273 0 11.84 5.3125 11.84 11.84v45.582c0 2.2734 0.29297 4.5273 0.86328 6.7109 3.8984-4.9453 9.8438-7.8828 16.324-7.8828 7.7539 0 14.062 6.3086 14.062 14.062s-6.3086 14.062-14.062 14.062h-0.91797c-5.957 0-11.629-2.6016-15.539-6.9688l-2.2812 4.5664c-1.7109 3.4102-5.1406 5.5273-8.9531 5.5273zm14.348-16.328c2.6367 4.293 7.3828 6.9531 12.426 6.9531h0.91797c4.3086 0 7.8125-3.5039 7.8125-7.8125s-3.5039-7.8125-7.8125-7.8125c-5.5586 0-10.551 3.0859-13.035 8.0547z"/>
 </g>
</svg>
