<?xml version="1.0" encoding="UTF-8"?>
<svg width="100pt" height="100pt" version="1.1" viewBox="0 0 100 100" xmlns="http://www.w3.org/2000/svg">
 <g>
  <path d="m81.074 93.75c-0.55078 0-1.1094-0.027344-1.6641-0.082031-4.9766-0.49219-9.4297-3.1602-12.215-7.3164-4.5938-6.8438-5.4336-15.473-2.2422-23.078l3.6641-8.7422c2.793-6.6641 4.2109-13.453 4.2227-20.172 0-9.4961-3.4688-16.215-10.027-19.578-7.6875-3.9336-17.773-2.3281-23.094 1.5-0.52344 0.38281-1.5508 1.2344-1.5508 1.2344-7.6367 6.6484-9.1562 18.086-3.4727 26.559l4.0586 6.0547c0.95703 1.4336 0.57812 3.375-0.85938 4.3359-1.4336 0.95703-3.3711 0.57812-4.3359-0.85938l-4.0586-6.0547c-7.4297-11.082-5.4414-26.043 4.625-34.801 0.058594-0.050781 1.2969-1.0742 1.9375-1.5352 6.7578-4.8633 19.422-7.207 29.598-1.9883 8.6562 4.4375 13.43 13.309 13.43 24.98-0.011719 7.7188-1.5977 15.312-4.7109 22.746l-3.6641 8.7422c-2.3711 5.6602-1.75 12.082 1.668 17.176 1.7461 2.6016 4.5312 4.2734 7.6445 4.582 3.1172 0.30078 6.1758-0.77734 8.3945-2.9883 1.2227-1.2188 3.2031-1.2109 4.418 0.011718 1.2188 1.2227 1.2109 3.2031-0.011719 4.418-3.1523 3.1328-7.3633 4.8555-11.754 4.8555z"/>
  <path d="m23.438 74.961c-9.4766 0-17.188-7.7109-17.188-17.188 0-9.4766 7.7109-17.188 17.188-17.188s17.184 7.7109 17.184 17.188c0 9.4766-7.707 17.188-17.184 17.188zm0-28.125c-6.0312 0-10.938 4.9062-10.938 10.938s4.9062 10.938 10.938 10.938 10.934-4.9062 10.934-10.938-4.9023-10.938-10.934-10.938z"/>
 </g>
</svg>
