<?xml version="1.0" encoding="UTF-8"?>
<svg width="100pt" height="100pt" version="1.1" viewBox="0 0 100 100" xmlns="http://www.w3.org/2000/svg">
 <g>
  <path d="m90.625 68.75h-25c-1.3008 0-2.4609-0.80469-2.9219-2.0195-0.46094-1.2148-0.11719-2.5859 0.85547-3.4492 5.2852-4.6641 8.3164-10.645 8.3164-16.406 0-12.062-9.8125-21.875-21.875-21.875s-21.875 9.8125-21.875 21.875c0 5.7539 3.0312 11.73 8.3203 16.402 0.97266 0.85938 1.3125 2.2305 0.85156 3.4453s-1.6211 2.0195-2.9219 2.0195l-25 0.007812v-6.25h17.934c-3.5039-4.8047-5.4336-10.254-5.4336-15.625 0-15.508 12.617-28.125 28.125-28.125s28.125 12.617 28.125 28.125c0 5.3789-1.9258 10.82-5.4297 15.625h17.93c1.7266 0 3.125 1.3984 3.125 3.125s-1.3984 3.125-3.125 3.125z"/>
  <path d="m90.625 81.25h-81.25c-1.7266 0-3.125-1.3984-3.125-3.125s1.3984-3.125 3.125-3.125h81.25c1.7266 0 3.125 1.3984 3.125 3.125s-1.3984 3.125-3.125 3.125z"/>
 </g>
</svg>
