<?xml version="1.0" encoding="UTF-8"?>
<svg width="100pt" height="100pt" version="1.1" viewBox="0 0 100 100" xmlns="http://www.w3.org/2000/svg">
 <g>
  <path d="m84.375 93.75c-0.70703 0-1.4219-0.23828-2.0039-0.73047-12.629-10.578-19.871-26.258-19.871-43.02s7.2422-32.441 19.867-43.02c1.3203-1.1055 3.293-0.93359 4.4023 0.39062 1.1094 1.3242 0.93359 3.293-0.39062 4.4023-11.203 9.3867-17.629 23.32-17.629 38.227s6.4258 28.84 17.633 38.23c1.3242 1.1094 1.4961 3.0781 0.39063 4.4023-0.62109 0.73828-1.5078 1.1172-2.3984 1.1172z"/>
  <path d="m12.5 93.75c-0.89062 0-1.7773-0.37891-2.3984-1.1172-1.1094-1.3242-0.93359-3.293 0.39063-4.4023 11.207-9.3906 17.633-23.324 17.633-38.23s-6.4258-28.84-17.633-38.23c-1.3242-1.1094-1.4961-3.0781-0.39063-4.4023 1.1055-1.3242 3.0781-1.4961 4.4023-0.39063 12.629 10.582 19.871 26.262 19.871 43.023s-7.2422 32.441-19.867 43.02c-0.58594 0.49219-1.2969 0.73047-2.0078 0.73047z"/>
  <path d="m90.625 53.125h-81.25c-1.7266 0-3.125-1.3984-3.125-3.125s1.3984-3.125 3.125-3.125h81.25c1.7266 0 3.125 1.3984 3.125 3.125s-1.3984 3.125-3.125 3.125z"/>
 </g>
</svg>
