<?xml version="1.0" encoding="UTF-8"?>
<svg width="100pt" height="100pt" version="1.1" viewBox="0 0 100 100" xmlns="http://www.w3.org/2000/svg">
 <g>
  <path d="m90.625 53.125c-1.7266 0-3.125-1.3984-3.125-3.125v-37.5h-37.5c-1.7266 0-3.125-1.3984-3.125-3.125s1.3984-3.125 3.125-3.125h40.625c1.7266 0 3.125 1.3984 3.125 3.125v40.625c0 1.7266-1.3984 3.125-3.125 3.125z"/>
  <path d="m9.375 93.75c-0.80078 0-1.5977-0.30469-2.2109-0.91406-1.2188-1.2188-1.2188-3.1992 0-4.418l81.25-81.25c1.2188-1.2188 3.1992-1.2188 4.418 0 1.2227 1.2188 1.2188 3.1992 0 4.418l-81.25 81.25c-0.60938 0.60937-1.4062 0.91406-2.207 0.91406z"/>
  <path d="m43.75 87.5c-0.80078 0-1.5977-0.30469-2.2109-0.91406l-28.125-28.125c-1.2188-1.2188-1.2188-3.1992 0-4.418 1.2188-1.2227 3.1992-1.2188 4.418 0l28.125 28.125c1.2188 1.2188 1.2188 3.1992 0 4.418-0.60938 0.60937-1.4062 0.91406-2.207 0.91406z"/>
 </g>
</svg>
