<?xml version="1.0" encoding="UTF-8"?>
<svg width="100pt" height="100pt" version="1.1" viewBox="0 0 100 100" xmlns="http://www.w3.org/2000/svg">
 <g>
  <path d="m25 81.25c-1.7266 0-3.125-1.3984-3.125-3.125v-57.812c0-4.3086-3.5039-7.8125-7.8125-7.8125h-4.6875c-1.7266 0-3.125-1.3984-3.125-3.125s1.3984-3.125 3.125-3.125h4.6875c7.7539 0 14.062 6.3086 14.062 14.062v57.812c0 1.7266-1.3984 3.125-3.125 3.125z"/>
  <path d="m46.875 81.25c-1.7266 0-3.125-1.3984-3.125-3.125v-57.812c0-4.3086-3.5039-7.8125-7.8125-7.8125s-7.8125 3.5039-7.8125 7.8125v1.5625c0 1.7266-1.3984 3.125-3.125 3.125s-3.125-1.3984-3.125-3.125v-1.5625c0-7.7539 6.3086-14.062 14.062-14.062s14.062 6.3086 14.062 14.062v57.812c0 1.7266-1.3984 3.125-3.125 3.125z"/>
  <path d="m90.625 87.5h-6.9492c-9.9531 0-18.051-8.0977-18.051-18.051v-49.137c0-4.3086-3.5039-7.8125-7.8125-7.8125s-7.8125 3.5039-7.8125 7.8125v1.5625c0 1.7266-1.3984 3.125-3.125 3.125s-3.125-1.3984-3.125-3.125v-1.5625c0-7.7539 6.3086-14.062 14.062-14.062s14.062 6.3086 14.062 14.062v49.137c0 6.5078 5.293 11.801 11.801 11.801h6.9492c1.7266 0 3.125 1.3984 3.125 3.125s-1.3984 3.125-3.125 3.125z"/>
  <path d="m84.375 93.75c-0.80078 0-1.5977-0.30469-2.2109-0.91406-1.2188-1.2188-1.2188-3.1992 0-4.418l4.043-4.043-4.0391-4.0391c-1.2188-1.2188-1.2188-3.1992 0-4.418 1.2188-1.2227 3.1992-1.2188 4.418 0l6.25 6.25c1.2188 1.2188 1.2188 3.1992 0 4.418l-6.25 6.25c-0.61328 0.60937-1.4102 0.91406-2.2109 0.91406z"/>
 </g>
</svg>
