<?xml version="1.0" encoding="UTF-8"?>
<svg width="100pt" height="100pt" version="1.1" viewBox="0 0 100 100" xmlns="http://www.w3.org/2000/svg">
 <g>
  <path d="m50 93.75c-17.23 0-31.25-14.02-31.25-31.25s14.02-31.25 31.25-31.25 31.25 14.02 31.25 31.25-14.02 31.25-31.25 31.25zm0-56.25c-13.785 0-25 11.215-25 25s11.215 25 25 25 25-11.215 25-25-11.215-25-25-25z"/>
  <path d="m50 34.375c-9.6016 0-18.469-5.6055-22.594-14.277-2.1914-4.6172-7.1953-7.5977-12.746-7.5977h-5.2852c-1.7266 0-3.125-1.3984-3.125-3.125s1.3984-3.125 3.125-3.125h5.2852c7.9531 0 15.172 4.3828 18.395 11.164 3.0938 6.5039 9.7422 10.711 16.945 10.711s13.852-4.207 16.945-10.715c3.2227-6.7773 10.441-11.16 18.395-11.16h5.2852c1.7266 0 3.125 1.3984 3.125 3.125s-1.3984 3.125-3.125 3.125h-5.2852c-5.5547 0-10.559 2.9805-12.75 7.5938-4.1211 8.6758-12.988 14.281-22.59 14.281z"/>
 </g>
</svg>
