<?xml version="1.0" encoding="UTF-8"?>
<svg width="100pt" height="100pt" version="1.1" viewBox="0 0 100 100" xmlns="http://www.w3.org/2000/svg">
 <g>
  <path d="m90.629 93.75c-0.98438 0-1.9531-0.46484-2.5625-1.332l-1.1719-1.6758c-2.6406-3.7695-5.043-7.6641-7.207-11.668-2.1641 4-4.5664 7.8984-7.2031 11.668l-1.1758 1.6758c-0.98828 1.4141-2.9375 1.7578-4.3516 0.76953-1.4141-0.99219-1.7578-2.9375-0.76562-4.3516l1.1719-1.6758c3.3633-4.8086 6.3242-9.8281 8.8672-15.023-6.9805-15.25-10.605-31.824-10.605-48.859v-2.9648c0-7.7539 6.3086-14.062 14.062-14.062s14.062 6.3086 14.062 14.062v2.9648c0 17.035-3.625 33.613-10.605 48.859 2.543 5.1953 5.5039 10.215 8.8672 15.023l1.1719 1.6758c0.99219 1.4141 0.64844 3.3594-0.76562 4.3516-0.54688 0.37891-1.1719 0.5625-1.7891 0.5625zm-10.941-81.25c-4.3086 0-7.8125 3.5039-7.8125 7.8125v2.9648c0 14.207 2.6641 28.078 7.8125 41.043 5.1484-12.969 7.8125-26.836 7.8125-41.043v-2.9648c0-4.3086-3.5039-7.8125-7.8125-7.8125z"/>
  <path d="m25 81.25c-1.7266 0-3.125-1.3984-3.125-3.125v-57.812c0-4.3086-3.5039-7.8125-7.8125-7.8125h-4.6875c-1.7266 0-3.125-1.3984-3.125-3.125s1.3984-3.125 3.125-3.125h4.6875c7.7539 0 14.062 6.3086 14.062 14.062v57.812c0 1.7266-1.3984 3.125-3.125 3.125z"/>
  <path d="m46.875 81.25c-1.7266 0-3.125-1.3984-3.125-3.125v-57.812c0-4.3086-3.5039-7.8125-7.8125-7.8125s-7.8125 3.5039-7.8125 7.8125v1.5625c0 1.7266-1.3984 3.125-3.125 3.125s-3.125-1.3984-3.125-3.125v-1.5625c0-7.7539 6.3086-14.062 14.062-14.062s14.062 6.3086 14.062 14.062v57.812c0 1.7266-1.3984 3.125-3.125 3.125z"/>
  <path d="m46.875 81.25c-1.7266 0-3.125-1.3984-3.125-3.125v-57.812c0-7.7539 6.3086-14.062 14.062-14.062s14.062 6.3086 14.062 14.062v1.5625c0 1.7266-1.3984 3.125-3.125 3.125s-3.125-1.3984-3.125-3.125v-1.5625c0-4.3086-3.5039-7.8125-7.8125-7.8125s-7.8125 3.5039-7.8125 7.8125v57.812c0 1.7266-1.3984 3.125-3.125 3.125z"/>
 </g>
</svg>
