<?xml version="1.0" encoding="UTF-8"?>
<svg width="100pt" height="100pt" version="1.1" viewBox="0 0 100 100" xmlns="http://www.w3.org/2000/svg">
 <path d="m73.836 3.4883c0-1.6055-1.3008-2.9062-2.9062-2.9062-1.6055 0-2.9062 1.3008-2.9062 2.9062v68.023h-45.125c4.832-4.2109 11.113-9.8867 16.855-16.324 8.4805-9.5117 16.457-21.402 16.457-33.516 0-6.1406-2.0352-11.105-5.4961-14.57-3.4336-3.4453-8.0625-5.1992-12.891-5.3477-9.6641-0.29297-20.262 5.8008-25.391 18.082-0.61719 1.4805 0.082031 3.1836 1.5625 3.8047 1.4805 0.61719 3.1836-0.082031 3.8008-1.5625 4.2695-10.227 12.77-14.727 19.848-14.512 3.5469 0.10547 6.6992 1.3789 8.957 3.6406 2.2305 2.2383 3.7969 5.6562 3.7969 10.465 0 9.7969-6.6172 20.266-14.984 29.645-6.6289 7.4375-13.934 13.742-18.961 18.082-1.2461 1.0742-2.3516 2.0312-3.2695 2.8516l-5.6953 5.0742h60.535v19.188c0 1.6055 1.3008 2.9062 2.9062 2.9062 1.6055 0 2.9062-1.3008 2.9062-2.9062v-19.188h15.699c1.6055 0 2.9062-1.3008 2.9062-2.9062s-1.3008-2.9062-2.9062-2.9062h-15.699z" fill-rule="evenodd"/>
</svg>
