<?xml version="1.0" encoding="UTF-8"?>
<svg width="100pt" height="100pt" version="1.1" viewBox="0 0 100 100" xmlns="http://www.w3.org/2000/svg">
 <path d="m99.488 4.2852c0-1.9727-1.5977-3.5703-3.5703-3.5703h-32.145c-1.9727 0-3.5703 1.5977-3.5703 3.5703s1.5977 3.5703 3.5703 3.5703h23.523l-22.047 22.047c-6.8281-5.7344-15.637-9.1875-25.25-9.1875-21.695 0-39.285 17.59-39.285 39.285s17.59 39.285 39.285 39.285 39.285-17.59 39.285-39.285c0-9.5117-3.3789-18.23-9.0039-25.027l22.066-22.066v23.523c0 1.9727 1.5977 3.5703 3.5703 3.5703 1.9727 0 3.5703-1.5977 3.5703-3.5703zm-91.633 55.715c0-17.754 14.391-32.145 32.145-32.145s32.145 14.391 32.145 32.145-14.391 32.145-32.145 32.145-32.145-14.391-32.145-32.145z" fill-rule="evenodd"/>
</svg>
