<?xml version="1.0" encoding="UTF-8"?>
<svg width="100pt" height="100pt" version="1.1" viewBox="0 0 100 100" xmlns="http://www.w3.org/2000/svg">
 <path d="m24.523 1.0703c1.293-0.89062 3.0625-0.56641 3.9531 0.72656 2.3906 3.4766 5.6016 6.2891 9.3594 8.2656 3.7461 1.9688 7.918 3 12.156 3.0039 4.2344 0.003906 8.4102-1.0195 12.16-2.9844 3.75-1.9609 6.9688-4.8047 9.375-8.2852 0.89062-1.293 2.6602-1.6133 3.9531-0.72266 1.2891 0.89062 1.6133 2.6602 0.71875 3.9531-2.9297 4.2383-6.8438 7.6992-11.41 10.09-0.98437 0.51562-1.9883 0.97656-3.0117 1.3828 11.422 4.6484 19.473 15.863 19.473 28.953 0 16.301-12.48 29.688-28.41 31.125v5.8086h8.5234c1.5703 0 2.8398 1.2734 2.8398 2.8398 0 1.5703-1.2695 2.8398-2.8398 2.8398h-8.5234v8.5234c0 1.5703-1.2695 2.8438-2.8398 2.8438s-2.8398-1.2734-2.8398-2.8438v-8.5234h-8.5234c-1.5703 0-2.8398-1.2695-2.8398-2.8398 0-1.5664 1.2695-2.8398 2.8398-2.8398h8.5234v-5.8086c-15.93-1.4375-28.41-14.824-28.41-31.125 0-13.098 8.0586-24.312 19.488-28.961-1.0391-0.41016-2.0547-0.87891-3.0469-1.4023-4.5508-2.3906-8.4648-5.8164-11.395-10.07-0.89062-1.293-0.5625-3.0586 0.72656-3.9492zm-0.089844 44.383c0-14.121 11.445-25.566 25.566-25.566s25.566 11.445 25.566 25.566-11.445 25.57-25.566 25.57-25.566-11.449-25.566-25.57z" fill-rule="evenodd"/>
</svg>
