<?xml version="1.0" encoding="UTF-8"?>
<svg width="100pt" height="100pt" version="1.1" viewBox="0 0 100 100" xmlns="http://www.w3.org/2000/svg">
 <path d="m64.074 94.855c-13.277-0.007813-25.867-5.8984-34.379-16.086-8.5156-10.184-12.082-23.621-9.7383-36.688 2.3438-13.066 10.355-24.426 21.879-31.02 11.523-6.5898 25.375-7.7383 37.828-3.1367 0.67188 0.25 1.1211 0.89062 1.1211 1.6094s-0.44922 1.3594-1.1211 1.6094c-10.645 3.9453-19.207 12.082-23.684 22.516-4.4766 10.434-4.4766 22.246 0 32.68 4.4766 10.434 13.039 18.57 23.684 22.516 0.67188 0.25 1.1211 0.89062 1.1211 1.6094s-0.44922 1.3594-1.1211 1.6094c-4.9922 1.8477-10.27 2.7891-15.59 2.7812zm0-86.285c-11.863 0.015626-23.148 5.1133-31.004 14.004-7.8516 8.8906-11.516 20.723-10.066 32.496 1.4531 11.773 7.8828 22.359 17.66 29.074 9.7734 6.7188 21.961 8.9219 33.473 6.0547-10.035-4.9727-17.848-13.523-21.898-23.965-4.0547-10.445-4.0547-22.023 0-32.469 4.0508-10.441 11.863-18.992 21.898-23.965-3.2891-0.82031-6.6719-1.2344-10.062-1.2305z"/>
</svg>
