<?xml version="1.0" encoding="UTF-8"?>
<svg width="100pt" height="100pt" version="1.1" viewBox="0 0 100 100" xmlns="http://www.w3.org/2000/svg">
 <path d="m39.676 0.54297c1.5 0 2.7148 1.2188 2.7148 2.7188v10.324h39.676c1.5 0 2.7148 1.2188 2.7148 2.7188s-1.2148 2.7188-2.7148 2.7188h-39.676v19.273c6.3516-6.5977 15.16-9.6797 23.102-9.4844 5.2305 0.13281 10.289 1.6875 14.098 4.8203 3.875 3.1875 6.2812 7.875 6.2812 13.801 0 5.8477-2.3633 11.539-5.7969 16.777-3.4453 5.2539-8.0938 10.246-12.977 14.742-7.8594 7.2344-16.598 13.426-22.301 17.465-1.3633 0.96484-2.5547 1.8086-3.5195 2.5156-1.2109 0.88281-2.9102 0.62109-3.7969-0.58984s-0.62109-2.9102 0.58984-3.7969c1.043-0.76562 2.2969-1.6523 3.7109-2.6562 5.7227-4.0547 14.066-9.9688 21.633-16.938 4.707-4.332 9.0078-8.9805 12.113-13.723 3.1172-4.7539 4.9062-9.4062 4.9062-13.797 0-4.3164-1.6914-7.4609-4.2969-9.6055-2.6719-2.1992-6.4766-3.4727-10.777-3.582-8.4609-0.21094-18.059 4.1094-22.969 13.188v15.609c0 1.5-1.2148 2.7188-2.7148 2.7188-1.5039 0-2.7188-1.2188-2.7188-2.7188v-16.223-0.11719-27.68h-20.109c-1.5 0-2.7188-1.2188-2.7188-2.7188s1.2188-2.7188 2.7188-2.7188h20.109v-10.324c0-1.5 1.2148-2.7188 2.7188-2.7188z" fill-rule="evenodd"/>
</svg>
