<?xml version="1.0" encoding="UTF-8"?>
<svg width="100pt" height="100pt" version="1.1" viewBox="0 0 100 100" xmlns="http://www.w3.org/2000/svg">
 <path d="m6.3945 50c0-24.082 19.523-43.605 43.605-43.605s43.605 19.523 43.605 43.605-19.523 43.605-43.605 43.605-43.605-19.523-43.605-43.605zm43.605-49.418c-27.293 0-49.418 22.125-49.418 49.418s22.125 49.418 49.418 49.418 49.418-22.125 49.418-49.418-22.125-49.418-49.418-49.418zm0 58.141c4.8164 0 8.7227-3.9062 8.7227-8.7227s-3.9062-8.7227-8.7227-8.7227-8.7227 3.9062-8.7227 8.7227 3.9062 8.7227 8.7227 8.7227z" fill-rule="evenodd"/>
</svg>
