<?xml version="1.0" encoding="UTF-8"?>
<svg width="100pt" height="100pt" version="1.1" viewBox="0 0 100 100" xmlns="http://www.w3.org/2000/svg">
 <path d="m20.395 36.844c0-16.352 13.254-29.605 29.605-29.605s29.605 13.254 29.605 29.605c0 16.348-13.254 29.605-29.605 29.605s-29.605-13.258-29.605-29.605zm29.605-36.188c-19.984 0-36.184 16.203-36.184 36.188 0 18.875 14.453 34.375 32.895 36.035v6.7266h-9.8672c-1.8164 0-3.293 1.4727-3.293 3.2891 0 1.8164 1.4766 3.2891 3.293 3.2891h9.8672v9.8672c0 1.8203 1.4727 3.293 3.2891 3.293s3.2891-1.4727 3.2891-3.293v-9.8672h9.8672c1.8164 0 3.293-1.4727 3.293-3.2891 0-1.8164-1.4766-3.2891-3.293-3.2891h-9.8672v-6.7266c18.441-1.6602 32.895-17.16 32.895-36.035 0-19.984-16.199-36.188-36.184-36.188z" fill-rule="evenodd"/>
</svg>
